<svg width="49" height="71" viewBox="0 0 49 71" fill="none" xmlns="http://www.w3.org/2000/svg">
<path id="Vector" d="M35.8139 26.5688H22.34V0H35.8139C43.0853 0 49 5.95808 49 13.2829C49 20.6077 43.0853 26.5688 35.8139 26.5688ZM26.66 22.2171H35.8139C40.7036 22.2171 44.68 18.2085 44.68 13.2859C44.68 8.36321 40.7007 4.35467 35.8139 4.35467H26.66V22.2171ZM26.66 26.5688H13.189C5.91759 26.5688 0.00293656 20.6107 0.00293656 13.2859C0.00293656 5.96104 5.91759 0 13.189 0H26.6629V26.5688H26.66ZM13.189 4.35171C8.29931 4.35171 4.32293 8.36025 4.32293 13.2829C4.32293 18.2056 8.29931 22.2171 13.189 22.2171H22.3429V4.35171H13.189ZM26.66 48.7829H13.189C5.91759 48.7829 0.00293656 42.8248 0.00293656 35.5C0.00293656 28.1752 5.91759 22.2171 13.189 22.2171H26.6629V48.7829H26.66ZM13.189 26.5688C8.29931 26.5688 4.32293 30.5773 4.32293 35.5C4.32293 40.4227 8.30225 44.4312 13.189 44.4312H22.3429V26.5688H13.189ZM13.2595 71C5.94989 71 0 65.0419 0 57.7171C0 50.3923 5.91465 44.4342 13.1861 44.4342H26.66V57.5721C26.66 64.9768 20.6484 71 13.2595 71ZM13.189 48.7829C10.8385 48.786 8.58522 49.728 6.92318 51.4023C5.26114 53.0765 4.32603 55.3464 4.32293 57.7141C4.32293 62.6398 8.33162 66.6453 13.2625 66.6453C18.2696 66.6453 22.3459 62.5747 22.3459 57.5692V48.7829H13.189ZM35.8139 48.7829H35.5261C28.2547 48.7829 22.34 42.8248 22.34 35.5C22.34 28.1752 28.2547 22.2171 35.5261 22.2171H35.8139C43.0853 22.2171 49 28.1752 49 35.5C49 42.8248 43.0853 48.7829 35.8139 48.7829ZM35.529 26.5688C30.6393 26.5688 26.6629 30.5773 26.6629 35.5C26.6629 40.4227 30.6423 44.4312 35.529 44.4312H35.8168C40.7066 44.4312 44.683 40.4227 44.683 35.5C44.683 30.5773 40.7007 26.5688 35.8139 26.5688H35.529Z" fill="#FAE8FF"/>
</svg>
