<svg width="38" height="53" viewBox="0 0 38 53" fill="none" xmlns="http://www.w3.org/2000/svg">
<path id="Vector" d="M1.25587 34.6097L6.43033 1.01897C6.46744 0.769801 6.58152 0.538809 6.75631 0.358903C6.93109 0.178997 7.15767 0.0593528 7.40376 0.0170169C7.64986 -0.0253189 7.90291 0.0118128 8.12687 0.123122C8.35084 0.234431 8.53429 0.41424 8.65108 0.636931L14.215 11.1728L1.25587 34.6097ZM38 42.7627L33.0772 11.8463C33.0434 11.6279 32.9501 11.4231 32.8077 11.2551C32.6654 11.087 32.4795 10.9622 32.2709 10.8946C32.0623 10.827 31.8392 10.8193 31.6265 10.8724C31.4138 10.9254 31.2199 11.037 31.0664 11.1949L0 42.765L17.1884 52.5412C17.7189 52.842 18.3171 53 18.9256 53C19.5341 53 20.1323 52.842 20.6628 52.5412L38 42.7627ZM24.0322 15.7838L20.0502 8.09441C19.9497 7.90104 19.7988 7.73909 19.6137 7.6261C19.4285 7.51311 19.2163 7.45339 19 7.45339C18.7837 7.45339 18.5715 7.51311 18.3863 7.6261C18.2012 7.73909 18.0503 7.90104 17.9498 8.09441L0.468217 39.7153L24.0322 15.7838Z" fill="#FFCA28"/>
</svg>
