<svg width="54" height="54" viewBox="0 0 54 54" fill="none" xmlns="http://www.w3.org/2000/svg">
<path id="Vector" d="M52.979 24.5928L29.4011 1.01755C28.042 -0.339184 25.8415 -0.339184 24.478 1.01755L19.5932 5.91125L25.8033 12.1212C27.2545 11.6374 28.9061 11.9637 30.0536 13.1134C31.2146 14.2722 31.5341 15.9439 31.0391 17.3884L37.0196 23.3733C38.4709 22.8716 40.1404 23.1978 41.2947 24.3521C42.9169 25.972 42.9169 28.591 41.2947 30.211C39.6769 31.8287 37.0624 31.8287 35.4446 30.211C34.2319 28.9938 33.9281 27.2028 34.5356 25.72L28.9353 20.1491V34.8302C29.3313 35.0237 29.7048 35.2869 30.0333 35.6132C31.6376 37.2354 31.6376 39.8499 30.0333 41.4631C28.4155 43.0854 25.783 43.0854 24.163 41.4631C22.5452 39.8454 22.5452 37.2354 24.163 35.6177C24.5725 35.2127 25.0338 34.9067 25.5243 34.7042V19.8791C25.036 19.6744 24.5703 19.3796 24.1743 18.9769C22.948 17.7506 22.6532 15.9574 23.2832 14.4567L17.1812 8.32548L1.01251 24.4826C-0.337504 25.8438 -0.337504 28.0465 1.01251 29.4078L24.5928 52.9808C25.9518 54.3397 28.1523 54.3397 29.5113 52.9808L52.979 29.5135C54.3403 28.1568 54.3403 25.954 52.979 24.5928Z" fill="#F05032"/>
</svg>
