<svg width="71" height="70" viewBox="0 0 71 70" fill="none" xmlns="http://www.w3.org/2000/svg">
<path id="Vector" d="M35.5 0C15.8862 0 0 16.0691 0 35.8886C0 51.7484 10.1707 65.1977 24.2731 69.938C26.0481 70.2759 26.699 69.1664 26.699 68.2123C26.699 67.36 26.6694 65.102 26.6546 62.1113C16.7797 64.2766 14.697 57.2962 14.697 57.2962C13.0817 53.1541 10.7476 52.0475 10.7476 52.0475C7.53192 49.8224 10.9961 49.8673 10.9961 49.8673C14.5609 50.1185 16.4335 53.5638 16.4335 53.5638C19.599 59.0518 24.7435 57.4667 26.7729 56.5485C27.0924 54.2277 28.0065 52.6456 29.0212 51.7484C21.1373 50.8512 12.851 47.7648 12.851 34.0135C12.851 30.0956 14.2266 26.8955 16.5045 24.3833C16.1052 23.4772 14.907 19.8285 16.8152 14.8848C16.8152 14.8848 19.7883 13.9218 26.5777 18.5634C29.4177 17.7649 32.4352 17.3701 35.4527 17.3522C38.4702 17.3701 41.4877 17.7649 44.3277 18.5634C51.0727 13.9218 54.0458 14.8848 54.0458 14.8848C55.9539 19.8285 54.7558 23.4772 54.4008 24.3833C56.6639 26.8955 58.0395 30.0956 58.0395 34.0135C58.0395 47.8007 49.7414 50.8363 41.8427 51.7185C43.0852 52.7952 44.2389 54.9963 44.2389 58.3579C44.2389 63.161 44.1945 67.0191 44.1945 68.1854C44.1945 69.1275 44.8158 70.249 46.6352 69.8901C60.8381 65.1827 71 51.7245 71 35.8886C71 16.0691 55.1049 0 35.5 0Z" fill="#FAE8FF"/>
</svg>
