<svg width="71" height="71" viewBox="0 0 71 71" fill="none" xmlns="http://www.w3.org/2000/svg">
<g id="insomnia-color 1" clip-path="url(#clip0_11_170)">
<path id="Vector" d="M35.9011 10.229C49.8583 10.229 61.1724 21.5432 61.1724 35.5003C61.1724 49.4571 49.8583 60.7713 35.9011 60.7713C21.9443 60.7713 10.6302 49.4571 10.6302 35.5003C10.6302 32.0893 11.3059 28.8361 12.5309 25.8674C14.3195 28.303 17.2039 29.8845 20.4578 29.8845C25.8854 29.8845 30.2853 25.4843 30.2853 20.0566C30.2853 16.8027 28.7041 13.9184 26.2682 12.1298C29.2372 10.905 32.4902 10.229 35.9011 10.229ZM35.5 0C15.8939 0 0 15.8939 0 35.5C0 55.1061 15.8939 71 35.5 71C55.1061 71 71 55.1061 71 35.5C71 15.8939 55.1061 0 35.5 0ZM35.5 3.61005C53.1121 3.61005 67.3899 17.8879 67.3899 35.5C67.3899 53.1121 53.1121 67.3899 35.5 67.3899C17.8879 67.3899 3.61005 53.1121 3.61005 35.5C3.61005 17.8879 17.8879 3.61005 35.5 3.61005Z" fill="#FAE8FF"/>
</g>
<defs>
<clipPath id="clip0_11_170">
<rect width="71" height="71" fill="white"/>
</clipPath>
</defs>
</svg>
