<svg width="32" height="32" viewBox="0 0 32 32" fill="none" xmlns="http://www.w3.org/2000/svg">
<path d="M16 0C16.8284 0 17.5 0.671573 17.5 1.5V4.5C17.5 5.32843 16.8284 6 16 6C15.1716 6 14.5 5.32843 14.5 4.5V1.5C14.5 0.671573 15.1716 0 16 0Z" fill="#FAE8FF"/>
<path d="M16 26C16.8284 26 17.5 26.6716 17.5 27.5V30.5C17.5 31.3284 16.8284 32 16 32C15.1716 32 14.5 31.3284 14.5 30.5V27.5C14.5 26.6716 15.1716 26 16 26Z" fill="#FAE8FF"/>
<path d="M16 10C12.6863 10 10 12.6863 10 16C10 19.3137 12.6863 22 16 22C19.3137 22 22 19.3137 22 16C22 12.6863 19.3137 10 16 10Z" fill="#FAE8FF"/>
<path d="M27.3136 6.80771C27.8994 6.22193 27.8994 5.27218 27.3136 4.68639C26.7278 4.10061 25.7781 4.10061 25.1923 4.68639L23.0709 6.80771C22.4852 7.3935 22.4852 8.34325 23.0709 8.92903C23.6567 9.51482 24.6065 9.51482 25.1923 8.92903L27.3136 6.80771Z" fill="#FAE8FF"/>
<path d="M8.92881 25.1925C9.5146 24.6067 9.5146 23.657 8.92881 23.0712C8.34303 22.4854 7.39328 22.4854 6.80749 23.0712L4.68617 25.1925C4.10039 25.7783 4.10039 26.728 4.68617 27.3138C5.27196 27.8996 6.22171 27.8996 6.80749 27.3138L8.92881 25.1925Z" fill="#FAE8FF"/>
<path d="M32 16C32 16.8284 31.3284 17.5 30.5 17.5H27.5C26.6716 17.5 26 16.8284 26 16C26 15.1716 26.6716 14.5 27.5 14.5H30.5C31.3284 14.5 32 15.1716 32 16Z" fill="#FAE8FF"/>
<path d="M6 16C6 16.8284 5.32843 17.5 4.5 17.5H1.5C0.671574 17.5 0 16.8284 0 16C0 15.1716 0.671574 14.5 1.5 14.5H4.5C5.32843 14.5 6 15.1716 6 16Z" fill="#FAE8FF"/>
<path d="M25.192 27.3136C25.7778 27.8994 26.7276 27.8994 27.3134 27.3136C27.8991 26.7278 27.8991 25.7781 27.3134 25.1923L25.192 23.0709C24.6063 22.4852 23.6565 22.4852 23.0707 23.0709C22.4849 23.6567 22.4849 24.6065 23.0707 25.1923L25.192 27.3136Z" fill="#FAE8FF"/>
<path d="M6.80727 8.92881C7.39305 9.5146 8.3428 9.5146 8.92859 8.92881C9.51438 8.34303 9.51437 7.39328 8.92859 6.80749L6.80727 4.68617C6.22148 4.10039 5.27174 4.10038 4.68595 4.68617C4.10016 5.27196 4.10016 6.22171 4.68595 6.80749L6.80727 8.92881Z" fill="#FAE8FF"/>
</svg>
