<svg width="70" height="47" viewBox="0 0 70 47" fill="none" xmlns="http://www.w3.org/2000/svg">
<path id="Vector" d="M32.4188 36.3246C31.7151 36.3319 31.0361 36.0714 30.5251 35.598C30.0141 35.1246 29.7111 34.4754 29.68 33.7874C29.6742 33.6672 29.6625 33.3436 29.3796 33.3436C29.2629 33.3436 29.1638 33.4094 29.05 33.5125C28.7233 33.8075 28.3092 34.1024 27.7083 34.1024C27.4022 34.0961 27.1001 34.0319 26.8188 33.9134C25.2583 33.3006 25.2379 32.2583 25.2992 31.8373C25.3167 31.7285 25.3196 31.6082 25.2408 31.5223L25.1475 31.4364H25.0483C24.9696 31.4364 24.8879 31.4708 24.7771 31.5481C24.3953 31.8324 23.9323 31.9926 23.4529 32.0063C23.2 32.0038 22.9498 31.9552 22.715 31.8631C20.65 31.0899 20.8192 29.2057 20.9154 28.6387C20.93 28.5213 20.9008 28.4325 20.8279 28.3753L20.6821 28.2607L20.545 28.3838C20.1493 28.7569 19.6214 28.9652 19.0721 28.9652C18.5079 28.9667 17.9662 28.7489 17.5659 28.3596C17.1656 27.9704 16.9394 27.4414 16.9371 26.8891C16.9371 25.7436 17.8938 24.8215 19.0721 24.8215C20.1338 24.8215 21.0408 25.5947 21.175 26.6256L21.2508 27.184L21.5717 26.7115C21.6008 26.66 22.4671 25.3943 24.0567 25.3943C24.3542 25.3943 24.6692 25.4401 24.9783 25.5374C26.2442 25.9097 26.46 27.0265 26.4921 27.4847C26.5154 27.7539 26.7108 27.771 26.7546 27.771C26.8625 27.771 26.9412 27.7023 26.9967 27.6422C27.2013 27.4364 27.4463 27.2732 27.7169 27.1625C27.9876 27.0518 28.2783 26.9958 28.5717 26.9979C28.945 26.9979 29.3388 27.0838 29.7442 27.2556C31.7567 28.0946 30.8496 30.5716 30.835 30.5974C30.6658 31.0098 30.6571 31.1902 30.8204 31.2961L30.8992 31.3333H30.9575C31.045 31.3333 31.1617 31.2932 31.3483 31.2331C31.6196 31.1415 32.0337 31.004 32.4188 31.004C33.1409 31.007 33.833 31.2878 34.3458 31.7859C34.8587 32.2841 35.1512 32.9597 35.1604 33.6672C35.1558 34.3755 34.8645 35.0531 34.3505 35.5513C33.8365 36.0495 33.1418 36.3276 32.4188 36.3246ZM53.7163 24.3806C50.3971 21.5742 42.7262 15.1025 40.6467 13.5848C39.4625 12.72 38.6488 12.2619 37.94 12.0586C37.5093 11.9276 37.061 11.86 36.61 11.8581C36.0792 11.8581 35.5133 11.9497 34.9183 12.1301C33.5767 12.5454 32.2408 13.5763 30.9458 14.5756L30.8787 14.6272C29.6713 15.555 28.4288 16.5172 27.4838 16.7176C27.0722 16.809 26.6516 16.856 26.2296 16.8579C25.1737 16.8579 24.2258 16.5601 23.8671 16.1191C23.8088 16.0475 23.8467 15.9301 23.9837 15.7612L24.0071 15.7383L26.9237 12.6828C29.2075 10.4664 31.3717 8.37026 36.3446 8.25858H36.5925C39.69 8.25858 42.7758 9.6016 43.1258 9.75909C45.8997 11.1012 48.9468 11.81 52.0392 11.8323C55.1775 11.8323 58.4208 11.0792 61.8217 9.55578C61.4367 9.24239 61.0428 8.93968 60.6404 8.64802C57.6508 9.908 54.7983 10.538 52.0479 10.538C49.2421 10.538 46.4333 9.88223 43.7121 8.59075C43.5663 8.52775 40.1538 6.9671 36.5954 6.95851C36.5021 6.95851 36.4058 6.95851 36.3154 6.96424C32.1329 7.05873 29.7821 8.49912 28.2013 9.75909C26.6612 9.79632 25.3371 10.1543 24.1529 10.475C23.1 10.7613 22.19 11.0076 21.2975 11.0048C20.9329 11.0048 20.2767 10.9761 20.2183 10.9704C19.1975 10.9418 14.0496 9.719 9.9575 8.21562C9.54042 8.50198 9.14083 8.79693 8.74708 9.10333C13.0229 10.8014 18.2262 12.1187 19.8654 12.2218C20.3233 12.2504 20.8075 12.2991 21.2975 12.2991C22.3825 12.2991 23.4675 12.0041 24.5175 11.7178C25.1388 11.5488 25.8183 11.3656 26.5358 11.231L25.9642 11.7865L22.9979 14.8992C22.7646 15.1283 22.2571 15.7411 22.5896 16.4942C22.763 16.8405 23.0343 17.1307 23.3713 17.3304C24.08 17.7943 25.3458 18.1036 26.5213 18.1064C26.9646 18.1064 27.3875 18.0635 27.7754 17.9804C29.0208 17.7084 30.3246 16.6976 31.71 15.6323C32.8096 14.7847 34.3729 13.708 35.5687 13.393C35.9209 13.3013 36.2835 13.2532 36.6479 13.2498C36.7405 13.2475 36.8332 13.2523 36.925 13.2641C37.7125 13.3615 38.4796 13.6221 39.8504 14.6157C42.2858 16.3912 53.0658 25.5403 53.1679 25.6291C53.1738 25.6348 53.8621 26.2104 53.8096 27.1668C53.7892 27.6994 53.4888 28.1748 52.9521 28.5012C52.5331 28.7737 52.0432 28.9227 51.5404 28.9308C51.0985 28.93 50.6657 28.8069 50.2921 28.5757C50.2513 28.5471 46.5588 25.2625 45.1996 24.1572C44.9837 23.9854 44.7738 23.8279 44.5579 23.8279C44.5044 23.8273 44.4514 23.8386 44.4029 23.8609C44.3544 23.8832 44.3117 23.916 44.2779 23.9567C44.065 24.2145 44.3071 24.5638 44.5842 24.7986L48.9008 29.0081C48.9067 29.0081 49.4375 29.4949 49.4958 30.1392C49.5308 30.8379 49.1867 31.4192 48.475 31.8746C48.024 32.1822 47.4903 32.3525 46.9408 32.3642C46.505 32.3626 46.0792 32.2362 45.7158 32.0005L45.0917 31.4107C44.0766 30.4117 43.026 29.4479 41.9417 28.5213C41.7317 28.3552 41.51 28.2006 41.2971 28.2006C41.2462 28.1993 41.1956 28.2082 41.1485 28.227C41.1013 28.2457 41.0586 28.2737 41.0229 28.3094C40.9267 28.4153 40.8596 28.6043 41.1046 28.9165C41.1709 29.0013 41.244 29.0808 41.3233 29.1541L44.4675 32.5847C44.4967 32.6134 45.115 33.3293 44.5375 34.048L44.4267 34.1855C44.335 34.2826 44.2376 34.3744 44.135 34.4604C43.5983 34.8899 42.8808 34.93 42.5979 34.93C42.4542 34.9315 42.3107 34.92 42.1692 34.8956C41.86 34.8441 41.65 34.7582 41.5508 34.6408L41.5129 34.6035C41.3379 34.4317 39.7571 32.8596 38.4388 31.7972C38.2667 31.6541 38.0508 31.4822 37.8263 31.4822C37.7736 31.4818 37.7214 31.4922 37.6731 31.513C37.6249 31.5337 37.5816 31.5642 37.5463 31.6025C37.2838 31.8774 37.6746 32.2898 37.8379 32.4415L40.5213 35.3137C40.4999 35.3779 40.4673 35.438 40.425 35.4913C40.3288 35.6173 40.005 35.9351 39.0279 36.0525C38.9099 36.067 38.791 36.0737 38.6721 36.0726C37.6658 36.0726 36.5954 35.6029 36.0413 35.3166C36.2913 34.8012 36.4208 34.2377 36.4204 33.6672C36.4177 33.143 36.3073 32.6248 36.096 32.1433C35.8847 31.6618 35.5767 31.2268 35.1903 30.8643C34.8039 30.5018 34.347 30.2191 33.8468 30.033C33.3466 29.847 32.8134 29.7613 32.2788 29.7813C32.3488 28.8019 32.2058 26.9463 30.2458 26.1331C29.7175 25.9031 29.1468 25.7813 28.5688 25.7751C28.1429 25.7751 27.7317 25.8467 27.3438 25.9899C26.9343 25.22 26.2309 24.6395 25.3867 24.3748C24.9235 24.2162 24.4366 24.134 23.9458 24.1314C23.1292 24.1314 22.3796 24.3605 21.7087 24.8244C21.3903 24.4409 20.9888 24.1315 20.5333 23.9186C20.0779 23.7056 19.5797 23.5944 19.075 23.5931C18.1804 23.5943 17.3218 23.9387 16.6833 24.5524C15.8462 23.931 12.5271 21.8892 3.65458 19.9334C2.97808 19.7666 2.30516 19.5862 1.63625 19.3922C1.5365 19.8596 1.46154 20.3318 1.41167 20.8068L3.36583 21.2564C12.4308 23.2093 15.4292 25.2396 15.9338 25.6233C15.7612 26.024 15.672 26.4543 15.6713 26.8891C15.6736 27.376 15.7853 27.8565 15.9984 28.2964C16.2116 28.7363 16.521 29.1248 16.9047 29.4342C17.2884 29.7437 17.7369 29.9665 18.2183 30.0868C18.6998 30.2072 19.2024 30.2222 19.6904 30.1306C19.9704 31.4679 20.8746 32.4816 22.2542 33.0028C22.64 33.1508 23.0502 33.2284 23.4646 33.2319C23.7271 33.2319 23.9867 33.1975 24.2404 33.1345C24.4913 33.7645 25.0629 34.5463 26.3463 35.0474C26.769 35.2194 27.2214 35.3108 27.6792 35.3166C28.035 35.3166 28.3821 35.2536 28.7146 35.1362C29.0199 35.8507 29.5343 36.4607 30.193 36.8893C30.8517 37.3179 31.6251 37.5459 32.4158 37.5444C33.495 37.5502 34.5333 37.1235 35.2887 36.3704C35.9333 36.7169 37.2954 37.3469 38.6808 37.3469C38.8558 37.3469 39.025 37.3411 39.1913 37.3182C40.5621 37.1493 41.2008 36.631 41.4925 36.2243C41.5452 36.1537 41.592 36.079 41.6325 36.001C41.9533 36.0926 42.315 36.1671 42.7204 36.1671C43.4642 36.1671 44.1817 35.9208 44.9079 35.4082C45.6196 34.91 46.1271 34.1941 46.2029 33.5841V33.5555C46.445 33.6042 46.69 33.6299 46.935 33.6299C47.7079 33.6299 48.4721 33.3951 49.1896 32.9369C50.5896 32.0492 50.8288 30.8895 50.8054 30.1306C51.2946 30.23 51.7991 30.232 52.2891 30.1365C52.7791 30.0411 53.2445 29.8502 53.6579 29.5751C54.0718 29.3316 54.4206 28.9946 54.6752 28.5922C54.9299 28.1898 55.0831 27.7335 55.1221 27.2613C55.1726 26.6054 55.0092 25.9506 54.6554 25.3914C57.0004 24.4121 62.3438 22.5192 68.6408 21.1447C68.601 20.672 68.5358 20.2018 68.4454 19.7358C63.3966 20.8181 58.4653 22.3715 53.7192 24.3748L53.7163 24.3806ZM68.6583 22.1956C68.6583 33.7273 53.5908 43.0798 35.0088 43.0798C16.4237 43.0798 1.35625 33.7273 1.35625 22.1956C1.35625 10.6611 16.4208 1.31152 35.0117 1.31152C53.5938 1.31152 68.6583 10.6611 68.6583 22.1956ZM70 22.2071C70 9.97386 54.3258 0 35 0C15.6742 0 0.00583333 9.97386 0.00583333 22.21L0 23.51C0 36.4907 13.6937 47 34.9971 47C56.4258 47 69.9971 36.4907 69.9971 23.5072L70 22.2071Z" fill="#00B1EA"/>
</svg>
