<svg width="25" height="56" viewBox="0 0 25 56" fill="none" xmlns="http://www.w3.org/2000/svg">
<path id="Vector" d="M24.5412 22.295C21.6103 9.275 14.6817 4.99567 13.9373 3.36C13.2881 2.44067 12.7084 1.134 12.233 0C12.1495 1.155 12.1055 1.59833 11.0203 2.76267C9.34378 4.08333 0.729415 11.354 0.0291357 26.1427C-0.624768 39.9373 9.93044 48.1577 11.3635 49.2053L11.5258 49.322C11.8242 51.5428 12.0793 53.7692 12.291 56H13.4063C13.6707 53.592 14.0649 51.2027 14.5889 48.8367C15.5559 48.146 15.9895 47.7563 16.5599 47.2197C19.2612 44.705 21.408 41.6479 22.8615 38.246C24.3151 34.8441 25.0429 31.1731 24.998 27.4703C25.0212 25.571 24.7592 23.5923 24.5412 22.295ZM12.1681 41.4167C12.1681 41.4167 12.1681 22.071 12.8058 22.0733C13.2997 22.0733 13.942 47.0283 13.942 47.0283C13.0585 46.9233 12.1681 42.9217 12.1681 41.4167Z" fill="#47A248"/>
</svg>
