<svg width="50" height="49" viewBox="0 0 50 49" fill="none" xmlns="http://www.w3.org/2000/svg">
<g id="nodemon-color">
<path id="Vector" d="M46.5208 16.0291L45.0292 15.2165C47.3229 12.0132 48.6917 7.19892 46.975 0C46.975 0 43.1062 10.2675 35.3292 9.92862L26.225 4.96533C25.8833 4.77678 25.5003 4.67173 25.1083 4.65908H24.8979C24.5047 4.67203 24.1204 4.77704 23.7771 4.96533L14.6708 9.92862C6.89374 10.2696 3.02499 0 3.02499 0C1.30624 7.19892 2.67916 12.0132 4.97082 15.2165L3.47916 16.0291C3.10951 16.2274 2.80077 16.519 2.58499 16.8738C2.36921 17.2285 2.25426 17.6333 2.25208 18.0463L2.29791 47.8362C2.29791 48.2507 2.52499 48.6366 2.91041 48.8387C3.09509 48.9442 3.305 48.9997 3.51874 48.9997C3.73248 48.9997 3.9424 48.9442 4.12708 48.8387L16.1896 42.2972C16.9521 41.8664 17.4167 41.109 17.4167 40.2821V26.364C17.4167 25.5351 17.8812 24.7654 18.6417 24.355L23.7771 21.5539C24.152 21.3462 24.5756 21.2379 25.0062 21.2395C25.4229 21.2395 25.8542 21.3415 26.225 21.5539L31.3604 24.355C32.1208 24.7654 32.5854 25.5351 32.5854 26.364V40.2821C32.5854 41.109 33.0562 41.8725 33.8146 42.2972L45.8729 48.8387C46.0595 48.944 46.2711 48.9995 46.4865 48.9995C46.7018 48.9995 46.9134 48.944 47.1 48.8387C47.2833 48.7398 47.4363 48.5948 47.5432 48.4185C47.6502 48.2423 47.7072 48.0413 47.7083 47.8362L47.7479 18.0463C47.7466 17.6332 47.632 17.2279 47.4161 16.8731C47.2003 16.5182 46.891 16.2267 46.5208 16.0291Z" fill="#76D04B"/>
</g>
</svg>
