<svg width="49" height="50" viewBox="0 0 49 50" fill="none" xmlns="http://www.w3.org/2000/svg">
<g id="nodedotjs-color" clip-path="url(#clip0_17_352)">
<path id="Vector" d="M24.4959 50C23.8405 50 23.1872 49.825 22.6135 49.4854L16.6192 45.8666C15.7249 45.3562 16.1618 45.175 16.4558 45.0687C17.6502 44.6458 17.8911 44.5479 19.1672 43.8104C19.2999 43.7333 19.4755 43.7625 19.6123 43.8458L24.2183 46.6354C24.3857 46.7291 24.6205 46.7291 24.7736 46.6354L42.73 36.0604C42.8975 35.9625 43.0036 35.7666 43.0036 35.5646V14.4187C43.0036 14.2125 42.8954 14.0187 42.7239 13.9146L24.7756 3.34789C24.6103 3.24997 24.3898 3.24997 24.2223 3.34789L6.27812 13.9166C6.10458 14.0187 5.99433 14.2187 5.99433 14.4187V35.5646C5.99433 35.7666 6.10458 35.9583 6.27812 36.0541L11.1965 38.9541C13.865 40.3166 15.5003 38.7125 15.5003 37.1V16.2229C15.5003 15.9271 15.7331 15.6958 16.023 15.6958H18.2995C18.5833 15.6958 18.8201 15.9291 18.8201 16.2229V37.1C18.8201 40.7354 16.8805 42.8187 13.5036 42.8187C12.4664 42.8187 11.6477 42.8187 9.36717 41.6708L4.655 38.9062C3.49125 38.2208 2.77258 36.9375 2.77258 35.5646V14.4187C2.77258 13.0458 3.49329 11.7625 4.655 11.0791L22.6115 0.491638C23.7487 -0.164612 25.2575 -0.164612 26.3845 0.491638L44.3389 11.0791C45.5026 11.7646 46.2254 13.0458 46.2254 14.4187V35.5646C46.2254 36.9375 45.5026 38.2166 44.3389 38.9062L26.3845 49.4854C25.8128 49.825 25.1615 50 24.4959 50ZM38.9938 29.1521C38.9938 25.1937 36.3723 24.1396 30.8537 23.3958C25.2779 22.6437 24.7103 22.2541 24.7103 20.9229C24.7103 19.8229 25.1901 18.3541 29.3204 18.3541C33.0097 18.3541 34.3694 19.1646 34.9288 21.7021C34.9778 21.9416 35.1922 22.1166 35.4331 22.1166H37.7627C37.9076 22.1166 38.0444 22.0521 38.1424 21.9479C38.2404 21.8354 38.2935 21.6916 38.2792 21.5396C37.9178 17.1687 35.0718 15.1312 29.3204 15.1312C24.1999 15.1312 21.1455 17.3354 21.1455 21.0333C21.1455 25.0437 24.1835 26.1521 29.0978 26.6479C34.9778 27.2354 35.4331 28.1125 35.4331 29.2916C35.4331 31.3396 33.8223 32.2125 30.039 32.2125C25.2881 32.2125 24.2428 30.9958 23.8916 28.5833C23.8507 28.325 23.6343 28.1354 23.375 28.1354H21.0537C20.7658 28.1354 20.5351 28.3687 20.5351 28.6625C20.5351 31.75 22.1807 35.4291 30.039 35.4291C35.7312 35.4312 38.9938 33.1458 38.9938 29.1521Z" fill="#339933"/>
</g>
<defs>
<clipPath id="clip0_17_352">
<rect width="49" height="50" fill="white"/>
</clipPath>
</defs>
</svg>
