<svg width="48" height="49" viewBox="0 0 48 49" fill="none" xmlns="http://www.w3.org/2000/svg">
<path id="Vector" d="M47.9479 30.059C47.9195 29.9735 47.8803 29.8918 47.8312 29.8159C47.5433 29.2785 46.8434 29.118 45.7442 29.342C42.319 30.0384 40.9927 29.6099 40.5118 29.303C43.2921 25.1213 45.5772 20.0706 46.8121 15.3591C47.3744 13.2139 48.4658 8.16483 47.0653 5.6987C46.9758 5.5299 46.8712 5.36933 46.7527 5.21891C44.0814 1.85506 40.1609 0.0506362 35.415 0.0010237C32.3184 -0.0312346 29.6753 0.707644 28.9593 0.979799C28.6047 0.91457 28.2483 0.859016 27.8905 0.813199C26.9937 0.653153 26.085 0.565885 25.1737 0.552274C22.7245 0.514707 20.608 1.09168 18.8554 2.2685C17.0793 1.61292 8.93432 -1.09004 3.89362 2.42938C1.07837 4.39489 -0.221223 7.90799 0.0306978 12.8713C0.115431 14.5414 1.08085 19.6782 2.60439 24.5978C3.55697 27.6736 4.54911 30.1142 5.57399 31.911C6.71965 33.9409 7.90654 35.164 9.12554 35.5646C10.0524 35.869 11.4722 35.8588 12.975 34.0785C14.6349 32.1113 16.2696 30.3508 17.0037 29.5727C17.9051 30.0535 18.8815 30.3128 19.8833 30.3428C19.8835 30.3456 19.8838 30.3484 19.8842 30.3512C19.7097 30.556 19.539 30.7639 19.372 30.9747C18.6699 31.8531 18.5239 32.0358 16.2641 32.4944C15.6214 32.625 13.9139 32.9719 13.889 34.1512C13.8839 34.4011 13.9572 34.6226 14.0794 34.8184C14.5495 35.6822 15.9887 36.0632 16.1822 36.111C18.9469 36.7919 21.3706 36.2988 23.1668 34.7253C23.1316 39.2802 23.3274 43.7441 23.8824 45.1121C24.3406 46.2409 25.4606 49.0004 28.9979 49C29.5168 49 30.0882 48.9406 30.7166 48.8079C34.4082 48.0278 36.0112 46.4199 36.6313 42.875C36.9427 41.0973 37.4633 37.0046 37.7476 34.5017C37.7826 34.3582 37.8215 34.2553 37.8656 34.2236C37.8671 34.2226 38.01 34.1275 38.7507 34.2863C38.781 34.2928 38.8116 34.2974 38.8425 34.3002L39.3685 34.3457L39.3993 34.3478C41.1537 34.4262 43.3592 34.0566 44.6433 33.4682C45.977 32.8582 48.3842 31.3606 47.9479 30.059ZM4.05149 24.2479C2.51116 19.2748 1.61121 14.2741 1.53994 12.8719C1.31496 8.43862 2.40406 5.35264 4.77659 3.6993C8.58171 1.04799 14.8033 2.59517 17.4306 3.43388C17.424 3.44042 17.417 3.44634 17.4103 3.45307C13.2176 7.62624 13.317 14.7557 13.3274 15.1916C13.327 15.3597 13.3411 15.5977 13.361 15.9252C13.4331 17.1243 13.5673 19.356 13.2087 21.8836C12.8753 24.2323 13.61 26.5313 15.2241 28.1907C15.391 28.3624 15.5655 28.5237 15.7457 28.6754C15.0272 29.4337 13.466 31.1103 11.8043 33.0805C10.6282 34.4739 9.81604 34.2069 9.549 34.1191C8.73709 33.8523 7.86469 32.9204 6.984 31.4194C5.99041 29.7065 4.9879 27.2714 4.05149 24.2479ZM16.4967 34.634C16.1422 34.5466 15.819 34.4029 15.6013 34.2722C15.7855 34.1918 16.0931 34.0881 16.6026 33.9846C19.2612 33.4454 19.6718 33.0646 20.5685 31.9425C20.774 31.6852 21.0068 31.3939 21.3294 31.0388C21.3988 30.9622 21.4508 30.8718 21.4821 30.7738C21.8359 30.4649 22.0464 30.5495 22.3872 30.6887C22.7104 30.8206 23.0249 31.2195 23.1527 31.6589C23.213 31.8663 23.281 32.2602 23.0591 32.5662C21.1856 35.1506 18.4566 35.1171 16.4967 34.634ZM20.8349 26.4918L20.7261 26.7797C20.4506 27.5078 20.1943 28.1846 20.0354 28.8275C18.6527 28.8232 17.3074 28.2411 16.2846 27.1893C14.9837 25.8518 14.3929 23.9912 14.6634 22.0843C15.0422 19.414 14.9023 17.0888 14.8271 15.8397C14.8168 15.6647 14.8074 15.5116 14.8018 15.3907C15.4144 14.8556 18.2531 13.3568 20.2772 13.8137C21.201 14.0224 21.7638 14.642 21.9977 15.7084C23.2089 21.2286 22.1581 23.5294 21.3137 25.3783C21.1396 25.7593 20.9753 26.1192 20.8349 26.4918ZM36.0904 35.8274C36.0554 36.1883 36.0162 36.595 35.9624 37.044L35.6599 37.9389C35.6359 38.0098 35.6231 38.084 35.6222 38.1588C35.61 39.1279 35.5103 39.4836 35.3839 39.9336C35.2526 40.4015 35.1036 40.9322 35.0123 42.0926C34.7844 44.9802 33.1929 46.6388 30.0045 47.3122C26.8648 47.9759 26.3079 46.2979 25.8172 44.8178C25.7669 44.6627 25.7138 44.5085 25.6578 44.3552C25.2116 43.1592 25.2619 41.4726 25.3318 39.1385C25.3659 37.9928 25.2802 35.2567 24.6477 33.7359C24.6568 33.1373 24.6696 32.5295 24.687 31.9151C24.6891 31.8373 24.6784 31.7597 24.6553 31.6852C24.6353 31.5417 24.6049 31.3998 24.5644 31.2606C24.3104 30.3861 23.6916 29.6546 22.9491 29.3514C22.6541 29.2309 22.1125 29.01 21.462 29.174C21.6008 28.6105 21.8413 27.9745 22.1022 27.2857L22.2117 26.9957C22.335 26.6691 22.4894 26.3308 22.653 25.9725C23.5366 24.0378 24.7467 21.3883 23.4332 15.4023C22.9414 13.1604 21.2985 12.0656 18.8083 12.3198C17.3152 12.4721 15.9496 13.0659 15.2682 13.4062C15.1316 13.4744 14.9963 13.5453 14.8625 13.6187C15.0527 11.3598 15.7712 7.13828 18.4584 4.46737C18.658 4.26915 18.8678 4.08108 19.0868 3.90387C19.1955 3.88298 19.298 3.83802 19.3865 3.77239C20.9453 2.60742 22.8971 2.03575 25.1915 2.0727C26.039 2.08638 26.8524 2.14192 27.6241 2.23808C31.6412 2.96164 34.3446 5.19196 35.9854 7.10276C37.6724 9.06745 38.5858 11.0462 38.9504 12.1136C36.2091 11.8388 34.3441 12.3725 33.3988 13.7041C31.3424 16.601 34.5238 22.2237 36.0529 24.9259C36.3332 25.4212 36.5754 25.8491 36.6514 26.031C37.1492 27.2203 37.794 28.0141 38.2647 28.5937C38.4088 28.7714 38.5489 28.9437 38.6552 29.094C37.8248 29.3298 36.3332 29.8749 36.4691 32.5995C36.4436 32.9186 36.3815 33.5119 36.2963 34.263C36.2008 34.6871 36.1509 35.2028 36.0904 35.8274ZM37.9353 32.5176C37.8513 30.8198 38.4927 30.6424 39.1714 30.4545C39.2653 30.4292 39.3586 30.4015 39.4511 30.3716C39.5387 30.4481 39.6316 30.5183 39.7292 30.5819C40.9107 31.3506 43.0072 31.4421 45.9584 30.8563C45.5407 31.2175 44.8834 31.6718 43.9834 32.0836C43.1344 32.4721 41.7134 32.7634 40.3635 32.8259C38.8725 32.8945 38.1138 32.6612 37.9353 32.5176ZM39.1151 13.5889C39.1029 14.3051 39.0028 14.9552 38.8967 15.6341C38.7828 16.3642 38.6647 17.1192 38.6349 18.0355C38.6055 18.9273 38.7186 19.8544 38.828 20.7511C39.0488 22.562 39.2754 24.4267 38.3981 26.2665C38.2524 26.012 38.1226 25.7491 38.0094 25.4792C37.9002 25.2187 37.6636 24.8001 37.3359 24.2211C36.0606 21.9669 33.0736 16.6882 34.6027 14.5342C35.3889 13.4262 37.3804 13.3784 39.1151 13.5889ZM39.5883 27.9086C39.5298 27.8351 39.4709 27.7621 39.4116 27.6893L39.338 27.5986C40.8425 25.1497 40.5483 22.7268 40.2864 20.5784C40.1789 19.6968 40.0774 18.8642 40.1031 18.0822C40.1298 17.2531 40.2411 16.5422 40.3486 15.8546C40.481 15.0073 40.6154 14.1308 40.5783 13.0973C40.6061 12.9889 40.6173 12.8609 40.6028 12.709C40.5081 11.7177 39.36 8.75222 37.02 6.06743C35.7612 4.62336 33.9339 3.01064 31.4493 1.90345C32.5372 1.68581 34.0033 1.48797 35.6433 1.5239C39.8934 1.617 43.256 3.1848 45.6377 6.1838C45.6883 6.24891 45.7345 6.31725 45.7759 6.38838C47.2739 9.15606 45.2037 19.2 39.5883 27.9086ZM21.3228 15.4213C21.271 15.7876 20.6828 16.2839 20.036 16.2839C19.98 16.284 19.924 16.2801 19.8684 16.2725C19.4804 16.2194 19.0884 15.9785 18.8203 15.6281C18.7255 15.5046 18.5711 15.2647 18.6018 15.0475C18.6132 14.9656 18.6559 14.8464 18.7934 14.7437C19.0383 14.5612 19.5222 14.4934 20.0563 14.5667C20.7116 14.6567 21.3876 14.9624 21.3228 15.4213ZM37.7525 14.5814C37.7755 14.7431 37.651 14.9918 37.4353 15.2147C37.2938 15.3611 36.9961 15.6151 36.5903 15.6704C36.5388 15.6775 36.4869 15.681 36.4349 15.681C35.8269 15.681 35.3133 15.2025 35.2733 14.9221C35.2236 14.5618 35.8204 14.288 36.4357 14.2035C37.051 14.1189 37.7018 14.2214 37.7525 14.5814Z" fill="#4169E1"/>
</svg>
