<svg width="50" height="44" viewBox="0 0 50 44" fill="none" xmlns="http://www.w3.org/2000/svg">
<path id="Vector" d="M29.6458 22.0051C29.6458 23.2255 29.1553 24.3959 28.2822 25.2591C27.409 26.1222 26.2247 26.6074 24.9896 26.6079C23.7541 26.6079 22.5693 26.123 21.6956 25.2598C20.822 24.3966 20.3312 23.2259 20.3312 22.0051C20.3312 20.7848 20.8218 19.6144 21.6949 18.7512C22.5681 17.8881 23.7524 17.4029 24.9875 17.4024C26.223 17.4024 27.4078 17.8873 28.2814 18.7505C29.155 19.6137 29.6458 20.7844 29.6458 22.0051ZM35.1625 0C32.3583 0 28.6896 1.97614 24.9792 5.39733C21.2708 1.99467 17.6 0.0411696 14.7979 0.0411696C13.9437 0.0411696 13.1667 0.232608 12.4937 0.613427C9.62917 2.2458 8.9875 7.3323 10.4667 13.7156C4.125 15.6506 0 18.7445 0 22.0051C0 25.2781 4.14583 28.3803 10.5063 30.3008C9.03958 36.7089 9.69375 41.8036 12.5646 43.4339C13.2312 43.8189 14.0021 44 14.8604 44C17.6625 44 21.3333 42.0239 25.0437 38.5986C28.7521 42.0033 32.4229 43.9568 35.225 43.9568C36.0792 43.9568 36.8562 43.7715 37.5292 43.3907C40.3917 41.7604 41.0354 36.6739 39.5562 30.2885C45.875 28.37 50 25.2699 50 22.0051C50 18.7322 45.8542 15.63 39.4938 13.7054C40.9604 7.30349 40.3062 2.20463 37.4354 0.572257C36.7729 0.193497 36.0042 0.00205848 35.1625 0ZM35.1521 2.24374V2.25609C35.6208 2.25609 35.9979 2.34667 36.3146 2.51752C37.7021 3.30386 38.3042 6.29483 37.8354 10.1421C37.7229 11.089 37.5396 12.0874 37.3146 13.1063C35.3146 12.6205 33.1354 12.248 30.8417 12.0071C29.4667 10.1442 28.0396 8.45212 26.6021 6.97001C29.9187 3.92346 33.0333 2.25198 35.1542 2.2458L35.1521 2.24374ZM14.7979 2.28491C16.9062 2.28491 20.0354 3.94816 23.3604 6.97825C21.9312 8.46035 20.5062 10.1421 19.1521 12.0051C16.8458 12.2459 14.6646 12.6185 12.6667 13.1125C12.4333 12.1039 12.2604 11.1281 12.1375 10.1895C11.6583 6.34423 12.25 3.35532 13.625 2.55869C14.0208 2.37343 14.4583 2.2952 14.7979 2.28491ZM24.9687 8.56327C25.9167 9.52664 26.8646 10.6053 27.8021 11.7827C26.8854 11.7416 25.9479 11.7127 25 11.7127C24.0417 11.7127 23.0938 11.7333 22.1667 11.7827C23.0833 10.6053 24.0312 9.5287 24.9687 8.56327ZM25 13.9688C26.5417 13.9688 28.0771 14.0388 29.5875 14.1603C30.4333 15.3583 31.2583 16.6366 32.0521 17.9891C32.8271 19.3065 33.5312 20.6445 34.1729 21.9949C33.5312 23.3432 32.8271 24.6915 32.0625 26.0089C31.2708 27.3675 30.4521 28.6602 29.6042 29.8582C28.0875 29.9879 26.55 30.06 25 30.06C23.4583 30.06 21.9229 29.9879 20.4125 29.8685C19.5667 28.6705 18.7417 27.3901 17.9479 26.0398C17.1729 24.7223 16.4688 23.3843 15.8271 22.034C16.4583 20.6815 17.1729 19.3312 17.9375 18.0117C18.7292 16.6531 19.5479 15.3645 20.3958 14.1665C21.9125 14.0347 23.45 13.9647 25 13.9647V13.9688ZM17.4271 14.4917C16.9271 15.2677 16.4271 16.0623 15.9604 16.8795C15.4917 17.6823 15.0542 18.4893 14.6375 19.2962C14.0854 17.9458 13.6167 16.5996 13.2292 15.2883C14.5625 14.9796 15.9687 14.7037 17.4271 14.4917ZM32.5521 14.4917C34 14.7037 35.3958 14.9651 36.7313 15.2883C36.3563 16.5893 35.8875 17.9273 35.3563 19.2674C34.9396 18.4646 34.5021 17.6556 34.0229 16.8507C33.5542 16.0438 33.0542 15.2575 32.5542 14.4917H32.5521ZM38.9333 15.8812C39.9417 16.1899 40.9 16.5337 41.7979 16.9063C45.4062 18.4296 47.7396 20.4222 47.7396 22.0031C47.7292 23.584 45.3958 25.5848 41.7875 27.0978C40.9125 27.4683 39.9542 27.8018 38.9646 28.1127C38.3812 26.1406 37.6188 24.0863 36.6729 21.9784C37.6104 19.8849 38.3604 17.8408 38.9333 15.8771V15.8812ZM11.0271 15.8894C11.6062 17.8655 12.3708 19.9178 13.3187 22.0237C12.3812 24.1171 11.6271 26.1612 11.0562 28.125C10.0479 27.8162 9.08958 27.4704 8.20208 27.0958C4.59375 25.5787 2.26042 23.584 2.26042 22.0031C2.26042 20.4222 4.59375 18.4172 8.20208 16.9063C9.07708 16.5358 10.0354 16.2023 11.0271 15.8894ZM35.3563 24.6997C35.9083 26.0521 36.3771 27.4004 36.7646 28.7096C35.4312 29.0328 34.0229 29.3066 32.5646 29.5124C33.0646 28.7405 33.5646 27.9439 34.0333 27.1287C34.5021 26.3259 34.9375 25.5066 35.3563 24.6997ZM14.6375 24.7409C15.0542 25.5478 15.4917 26.3527 15.9708 27.1596C16.45 27.9624 16.9396 28.7487 17.4396 29.5124C15.9917 29.3025 14.5958 29.039 13.2604 28.7178C13.6354 27.421 14.1062 26.0789 14.6354 24.7388L14.6375 24.7409ZM37.3333 30.8895C37.5667 31.9044 37.75 32.8822 37.8625 33.8188C38.3417 37.664 37.75 40.6529 36.375 41.4516C36.0687 41.6369 35.6708 41.7151 35.2021 41.7151C33.0937 41.7151 29.9646 40.0539 26.6396 37.0218C28.0687 35.5396 29.4937 33.8599 30.8479 31.9991C33.1542 31.7562 35.3354 31.3836 37.3333 30.8895ZM12.6875 30.9101C14.6875 31.3918 16.8667 31.7644 19.1604 32.0052C20.5354 33.8682 21.9625 35.5602 23.4 37.0403C20.0771 40.093 16.9583 41.7645 14.8375 41.7645C14.3792 41.7542 13.9917 41.6616 13.6854 41.4928C12.2979 40.7106 11.6958 37.7175 12.1646 33.8702C12.2771 32.9233 12.4625 31.927 12.6875 30.9101ZM22.1875 32.2276C23.1042 32.2687 24.0417 32.2975 24.9896 32.2975C25.9479 32.2975 26.8958 32.277 27.8229 32.2276C26.9062 33.405 25.9583 34.4816 25.0208 35.4491C24.0729 34.4816 23.125 33.405 22.1875 32.2276Z" fill="#61DAFB"/>
</svg>
