<svg width="49" height="48" viewBox="0 0 49 48" fill="none" xmlns="http://www.w3.org/2000/svg">
<path id="Vector" d="M33.9605 33.4988C35.7367 33.3406 37.1108 31.7272 37.023 29.7997C36.927 27.8721 35.3978 26.3241 33.5338 26.3241H33.4093C32.4842 26.3582 31.6102 26.7703 30.9792 27.4699C30.3483 28.1695 30.0121 29.0993 30.0447 30.0548C30.1059 31.065 30.5061 31.8875 31.0532 32.4865C28.9136 36.7845 25.7021 39.9438 20.8348 42.5989C17.5621 44.3663 14.1056 45.0327 10.741 44.5603C7.92764 44.149 5.72675 42.852 4.37928 40.7663C2.36214 37.6049 2.17839 34.1947 3.85866 30.7824C5.08364 28.3149 6.91907 26.516 8.14405 25.6302C7.77425 24.571 7.48749 23.4828 7.28656 22.3761C-1.77217 29.0784 -0.849349 38.2397 1.90277 42.5694C3.95257 45.7286 8.14405 47.749 12.7316 47.749C13.9566 47.749 15.2428 47.6562 16.4943 47.3399C24.4506 45.7603 30.4754 40.8316 33.9319 33.5642L33.9605 33.4988ZM44.8792 25.5986C40.1426 19.8453 33.1643 16.6861 25.2101 16.6861H24.1688C23.6523 15.5178 22.46 14.7902 21.1105 14.7902H21.0186C19.0933 14.7902 17.5927 16.4984 17.656 18.4872C17.7173 20.381 19.2771 21.9627 21.1431 21.9627H21.2942C21.9561 21.9363 22.5966 21.7137 23.1393 21.3214C23.682 20.9291 24.1039 20.3837 24.3546 19.7504H25.4877C30.2019 19.7504 34.6649 21.1719 38.7339 23.9515C41.8514 26.071 44.087 28.8506 45.3426 32.1701C46.441 34.8865 46.3818 37.5417 45.2508 39.7561C43.5052 43.2295 40.5672 45.0643 36.6841 45.0643C34.2361 45.0643 31.8515 44.2735 30.6265 43.7062C29.8915 44.3346 28.6666 45.3786 27.7805 46.0112C30.4714 47.2724 33.1949 48 35.8245 48C41.7902 48 46.2246 44.5265 47.909 41.1754C49.7423 37.3835 49.5913 31.0018 44.9078 25.5353L44.8792 25.5986ZM13.2502 34.6334C13.3114 36.5294 14.8692 38.109 16.7373 38.109H16.8598C17.3195 38.0982 17.7725 37.9926 18.1921 37.7982C18.6117 37.6039 18.9894 37.3247 19.303 36.9773C19.6165 36.6298 19.8596 36.221 20.0178 35.775C20.1761 35.329 20.2463 34.8548 20.2244 34.3803C20.2244 32.4823 18.634 30.9069 16.7679 30.9069H16.6454C16.5229 30.9069 16.3392 30.9069 16.184 30.968C13.6463 26.5434 12.5744 21.8004 12.9746 16.6861C13.2196 12.8309 14.4445 9.47979 16.6434 6.70018C18.4808 4.3297 21.9373 3.15712 24.2934 3.09807C30.9001 2.96942 33.6543 11.4728 33.8666 14.8534L36.925 15.8025C36.2206 5.4348 29.9834 0 24.0178 0C18.4155 0 13.2502 4.20316 11.1677 10.3656C8.32371 18.58 10.1898 26.4823 13.6789 32.8028C13.3727 33.2141 13.1889 33.9395 13.2502 34.6334Z" fill="#764ABC"/>
</svg>
