<svg width="67" height="41" viewBox="0 0 67 41" fill="none" xmlns="http://www.w3.org/2000/svg">
<path id="Vector" d="M33.5 0C24.5667 0 18.9833 4.55556 16.75 13.6667C20.1 9.11111 24.0083 7.40278 28.475 8.54167C31.0238 9.19083 32.844 11.0757 34.8623 13.1656C38.1481 16.5651 41.9476 20.5 50.25 20.5C59.1833 20.5 64.7667 15.9444 67 6.83333C63.65 11.3889 59.7417 13.0972 55.275 11.9583C52.7262 11.3092 50.906 9.4243 48.8877 7.33444C45.6047 3.93486 41.8052 0 33.5 0ZM16.75 20.5C7.81667 20.5 2.23333 25.0556 0 34.1667C3.35 29.6111 7.25833 27.9028 11.725 29.0417C14.2738 29.6908 16.094 31.5757 18.1123 33.6656C21.3981 37.0651 25.1976 41 33.5 41C42.4333 41 48.0167 36.4444 50.25 27.3333C46.9 31.8889 42.9917 33.5972 38.525 32.4583C35.9762 31.8092 34.156 29.9243 32.1377 27.8344C28.8547 24.4349 25.0552 20.5 16.75 20.5Z" fill="#06B6D4"/>
</svg>
