<svg width="71" height="70" viewBox="0 0 71 70" fill="none" xmlns="http://www.w3.org/2000/svg">
<path id="Vector" d="M68.4855 7.403L53.8715 0.433782C53.0456 0.039602 52.1165 -0.0903149 51.2128 0.0620225C50.3091 0.21436 49.4756 0.641413 48.8276 1.28404L20.8422 26.5867L8.65402 17.4156C8.10414 17.0022 7.42563 16.7926 6.73616 16.8231C6.04669 16.8537 5.38974 17.1224 4.87924 17.5827L0.968378 21.1069C0.663616 21.3815 0.420063 21.7161 0.25331 22.0893C0.0865567 22.4626 0.000279152 22.8662 6.76277e-07 23.2744C-0.000277799 23.6826 0.085449 24.0864 0.251693 24.4598C0.417936 24.8333 0.661033 25.1682 0.96542 25.4432L11.5354 35.0013L0.96542 44.5594C0.661033 44.8344 0.417936 45.1694 0.251693 45.5428C0.085449 45.9163 -0.000277799 46.3201 6.76277e-07 46.7283C0.000279152 47.1365 0.0865567 47.5401 0.25331 47.9133C0.420063 48.2866 0.663616 48.6212 0.968378 48.8958L4.8822 52.417C5.3927 52.8773 6.04965 53.1461 6.73912 53.1766C7.42859 53.2071 8.1071 52.9975 8.65698 52.5842L20.8451 43.4131L48.8306 68.7157C49.4778 69.3584 50.3109 69.7856 51.2141 69.938C52.1174 70.0903 53.0461 69.9603 53.8715 69.5659L68.4914 62.5967C69.2435 62.2369 69.878 61.6741 70.3218 60.9728C70.7655 60.2716 71.0006 59.4605 71 58.6327V11.367C71.0001 10.5386 70.7641 9.72705 70.3192 9.02576C69.8744 8.32447 69.2387 7.76196 68.4855 7.403ZM53.2621 50.9745L32.0275 35.0013L53.2621 19.0281V50.9745Z" fill="#FAE8FF"/>
</svg>
